<svg width="38" height="13" viewBox="0 0 38 13" fill="none" xmlns="http://www.w3.org/2000/svg">
<path d="M0.721914 12C0.604581 12 0.513914 11.968 0.449914 11.904C0.385914 11.8293 0.353914 11.7387 0.353914 11.632V1.168C0.353914 1.06133 0.385914 0.976 0.449914 0.912C0.513914 0.837333 0.604581 0.799999 0.721914 0.799999H1.56991C1.67658 0.799999 1.76191 0.837333 1.82591 0.912C1.90058 0.976 1.93791 1.06133 1.93791 1.168V11.632C1.93791 11.7387 1.90058 11.8293 1.82591 11.904C1.76191 11.968 1.67658 12 1.56991 12H0.721914ZM8.00816 12C7.92283 12 7.84816 11.968 7.78416 11.904C7.72016 11.84 7.68816 11.7653 7.68816 11.68C7.68816 11.6267 7.6935 11.568 7.70416 11.504L11.6722 1.152C11.7148 1.04533 11.7735 0.96 11.8482 0.896C11.9228 0.831999 12.0348 0.799999 12.1842 0.799999H13.2722C13.4108 0.799999 13.5175 0.831999 13.5922 0.896C13.6775 0.96 13.7415 1.04533 13.7842 1.152L17.7362 11.504C17.7575 11.568 17.7682 11.6267 17.7682 11.68C17.7682 11.7653 17.7362 11.84 17.6722 11.904C17.6082 11.968 17.5335 12 17.4482 12H16.6322C16.5042 12 16.4082 11.968 16.3442 11.904C16.2908 11.84 16.2535 11.7813 16.2322 11.728L15.3522 9.456H10.1042L9.22416 11.728C9.2135 11.7813 9.17616 11.84 9.11216 11.904C9.04816 11.968 8.95216 12 8.82416 12H8.00816ZM10.5682 8.08H14.8882L12.7282 2.4L10.5682 8.08Z" fill="#FF7337"/>
<path d="M4.77691 12C4.67025 12 4.57958 11.968 4.50491 11.904C4.44091 11.8293 4.40891 11.7387 4.40891 11.632V10.48C4.40891 10.3733 4.44091 10.288 4.50491 10.224C4.57958 10.1493 4.67025 10.112 4.77691 10.112H5.92891C6.03558 10.112 6.12091 10.1493 6.18491 10.224C6.25958 10.288 6.29691 10.3733 6.29691 10.48V11.632C6.29691 11.7387 6.25958 11.8293 6.18491 11.904C6.12091 11.968 6.03558 12 5.92891 12H4.77691ZM19.5419 12C19.4419 12 19.3569 11.97 19.2869 11.91C19.2269 11.84 19.1969 11.755 19.1969 11.655V4.56C19.1969 4.46 19.2269 4.375 19.2869 4.305C19.3569 4.235 19.4419 4.2 19.5419 4.2H20.2319C20.3319 4.2 20.4169 4.235 20.4869 4.305C20.5569 4.375 20.5919 4.46 20.5919 4.56V5.22C20.7919 4.88 21.0669 4.625 21.4169 4.455C21.7669 4.285 22.1869 4.2 22.6769 4.2H23.2769C23.3769 4.2 23.4569 4.235 23.5169 4.305C23.5769 4.365 23.6069 4.445 23.6069 4.545V5.16C23.6069 5.26 23.5769 5.34 23.5169 5.4C23.4569 5.46 23.3769 5.49 23.2769 5.49H22.3769C21.8369 5.49 21.4119 5.65 21.1019 5.97C20.7919 6.28 20.6369 6.705 20.6369 7.245V11.655C20.6369 11.755 20.6019 11.84 20.5319 11.91C20.4619 11.97 20.3769 12 20.2769 12H19.5419ZM27.9402 12C27.3802 12 26.9252 11.895 26.5752 11.685C26.2252 11.465 25.9702 11.16 25.8102 10.77C25.6502 10.37 25.5702 9.9 25.5702 9.36V5.4H24.4002C24.3002 5.4 24.2152 5.37 24.1452 5.31C24.0852 5.24 24.0552 5.155 24.0552 5.055V4.545C24.0552 4.445 24.0852 4.365 24.1452 4.305C24.2152 4.235 24.3002 4.2 24.4002 4.2H25.5702V1.695C25.5702 1.595 25.6002 1.515 25.6602 1.455C25.7302 1.385 25.8152 1.35 25.9152 1.35H26.6202C26.7202 1.35 26.8002 1.385 26.8602 1.455C26.9302 1.515 26.9652 1.595 26.9652 1.695V4.2H28.8252C28.9252 4.2 29.0052 4.235 29.0652 4.305C29.1352 4.365 29.1702 4.445 29.1702 4.545V5.055C29.1702 5.155 29.1352 5.24 29.0652 5.31C29.0052 5.37 28.9252 5.4 28.8252 5.4H26.9652V9.255C26.9652 9.725 27.0452 10.095 27.2052 10.365C27.3652 10.635 27.6502 10.77 28.0602 10.77H28.9752C29.0752 10.77 29.1552 10.805 29.2152 10.875C29.2852 10.935 29.3202 11.015 29.3202 11.115V11.655C29.3202 11.755 29.2852 11.84 29.2152 11.91C29.1552 11.97 29.0752 12 28.9752 12H27.9402ZM33.8595 12.15C32.8295 12.15 32.0095 11.835 31.3995 11.205C30.7895 10.565 30.4545 9.695 30.3945 8.595C30.3845 8.465 30.3795 8.3 30.3795 8.1C30.3795 7.89 30.3845 7.72 30.3945 7.59C30.4345 6.88 30.5995 6.26 30.8895 5.73C31.1795 5.19 31.5745 4.775 32.0745 4.485C32.5845 4.195 33.1795 4.05 33.8595 4.05C34.6195 4.05 35.2545 4.21 35.7645 4.53C36.2845 4.85 36.6795 5.305 36.9495 5.895C37.2195 6.485 37.3545 7.175 37.3545 7.965V8.22C37.3545 8.33 37.3195 8.415 37.2495 8.475C37.1895 8.535 37.1095 8.565 37.0095 8.565H31.8195C31.8195 8.575 31.8195 8.595 31.8195 8.625C31.8195 8.655 31.8195 8.68 31.8195 8.7C31.8395 9.11 31.9295 9.495 32.0895 9.855C32.2495 10.205 32.4795 10.49 32.7795 10.71C33.0795 10.93 33.4395 11.04 33.8595 11.04C34.2195 11.04 34.5195 10.985 34.7595 10.875C34.9995 10.765 35.1945 10.645 35.3445 10.515C35.4945 10.375 35.5945 10.27 35.6445 10.2C35.7345 10.07 35.8045 9.995 35.8545 9.975C35.9045 9.945 35.9845 9.93 36.0945 9.93H36.8145C36.9145 9.93 36.9945 9.96 37.0545 10.02C37.1245 10.07 37.1545 10.145 37.1445 10.245C37.1345 10.395 37.0545 10.58 36.9045 10.8C36.7545 11.01 36.5395 11.22 36.2595 11.43C35.9795 11.64 35.6395 11.815 35.2395 11.955C34.8395 12.085 34.3795 12.15 33.8595 12.15ZM31.8195 7.53H35.9295V7.485C35.9295 7.035 35.8445 6.635 35.6745 6.285C35.5145 5.935 35.2795 5.66 34.9695 5.46C34.6595 5.25 34.2895 5.145 33.8595 5.145C33.4295 5.145 33.0595 5.25 32.7495 5.46C32.4495 5.66 32.2195 5.935 32.0595 6.285C31.8995 6.635 31.8195 7.035 31.8195 7.485V7.53Z" fill="white"/>
</svg>
